<mxfile host="app.diagrams.net" modified="2024-07-07T06:01:24.690Z" agent="Mozilla/5.0 (Macintosh; Intel Mac OS X 10_15_7) AppleWebKit/605.1.15 (KHTML, like Gecko) Version/17.3.1 Safari/605.1.15" version="24.6.4" etag="3tkVvcnEl8YMMKAUFnQG" type="github">
  <diagram name="Page-1" id="vxwASHul4JyoGBCq2_7Z">
    <mxGraphModel>
      <root>
        <mxCell id="0" />
        <mxCell id="1" parent="0" />
      </root>
    </mxGraphModel>
  </diagram>
</mxfile>
